<svg width="273" height="58" viewBox="0 0 273 58" fill="none" xmlns="http://www.w3.org/2000/svg">
<path d="M13.1875 7.9375C13.1042 7.8125 12.9583 7.6875 12.75 7.5625C12.5833 7.4375 12.375 7.33333 12.125 7.25C11.875 7.16667 11.625 7.14583 11.375 7.1875C11.1667 7.1875 11 7.27083 10.875 7.4375C10.75 7.64583 10.5208 8.4375 10.1875 9.8125C9.89583 11.1458 9.58333 12.8125 9.25 14.8125C8.91667 16.8125 8.625 19.0417 8.375 21.5C8.125 23.9583 8 26.3958 8 28.8125C8 30.5625 8.0625 32.3958 8.1875 34.3125C8.3125 36.1875 8.45833 37.9167 8.625 39.5C8.83333 41.0833 9.0625 42.3958 9.3125 43.4375C9.60417 44.4375 9.89583 44.9375 10.1875 44.9375C10.4792 44.9792 10.875 44.6667 11.375 44C11.875 43.3333 12.3542 42.5833 12.8125 41.75C13.2708 40.875 13.6875 40.0417 14.0625 39.25C14.4792 38.4167 14.75 37.8542 14.875 37.5625C15.0417 37.1042 15.2708 36.6042 15.5625 36.0625C15.8542 35.4792 16.1458 34.9583 16.4375 34.5C16.7292 34 17.0208 33.6042 17.3125 33.3125C17.6042 32.9792 17.8542 32.8125 18.0625 32.8125C18.3125 32.8125 18.5208 33.0625 18.6875 33.5625C18.8958 34.0625 19.0417 34.6667 19.125 35.375C19.25 36.0417 19.3333 36.75 19.375 37.5C19.4167 38.2083 19.4375 38.7917 19.4375 39.25C19.4375 40.0833 19.2708 41.125 18.9375 42.375C18.6458 43.625 18.25 44.8333 17.75 46C17.2917 47.1667 16.7708 48.1667 16.1875 49C15.6458 49.8333 15.125 50.2292 14.625 50.1875C14.125 50.1458 13.3125 49.8542 12.1875 49.3125C11.1042 48.7708 9.97917 48.1458 8.8125 47.4375C7.64583 46.7292 6.58333 46.0208 5.625 45.3125C4.66667 44.6042 4.10417 44.0417 3.9375 43.625C3.72917 43.25 3.41667 42.3542 3 40.9375C2.625 39.4792 2.22917 37.7292 1.8125 35.6875C1.39583 33.6458 1.02083 31.3958 0.6875 28.9375C0.395833 26.4792 0.25 24 0.25 21.5C0.25 19 0.270833 16.5417 0.3125 14.125C0.354167 11.6667 0.4375 9.47917 0.5625 7.5625C0.729167 5.64583 0.979167 4.10417 1.3125 2.9375C1.64583 1.72917 2.10417 1.08333 2.6875 1C3.85417 0.875 5.125 0.958333 6.5 1.25C7.875 1.5 9.25 1.89583 10.625 2.4375C12 2.97917 13.3125 3.60417 14.5625 4.3125C15.8542 4.97917 17 5.6875 18 6.4375C19 7.14583 19.7917 7.83333 20.375 8.5C21 9.16667 21.3333 9.72917 21.375 10.1875C21.4167 10.8958 21.3333 11.6875 21.125 12.5625C20.9167 13.4375 20.6667 14.2917 20.375 15.125C20.0833 15.9167 19.7708 16.6458 19.4375 17.3125C19.1458 17.9375 18.9167 18.375 18.75 18.625C18.5417 18.9167 18.2917 19.2292 18 19.5625C17.7083 19.8958 17.3958 20.1875 17.0625 20.4375C16.7708 20.6875 16.4583 20.875 16.125 21C15.8333 21.0833 15.5625 21.0208 15.3125 20.8125C15.1458 20.6875 14.9792 20.2917 14.8125 19.625C14.6875 18.9583 14.5417 18.1667 14.375 17.25C14.25 16.3333 14.125 15.3542 14 14.3125C13.875 13.2292 13.75 12.2292 13.625 11.3125C13.5417 10.3958 13.4583 9.625 13.375 9C13.2917 8.375 13.2292 8.02083 13.1875 7.9375ZM37.0625 14.9375C37.3958 15.1458 37.7083 15.5625 38 16.1875C38.3333 16.7708 38.625 17.4583 38.875 18.25C39.1667 19 39.3958 19.8125 39.5625 20.6875C39.7708 21.5625 39.9375 22.375 40.0625 23.125C40.2292 23.875 40.3333 24.5208 40.375 25.0625C40.4167 25.5625 40.4167 25.875 40.375 26C40.2917 26.1667 40.0417 26.3333 39.625 26.5C39.25 26.6667 38.6875 26.8542 37.9375 27.0625C37.1875 27.2708 36.1458 27.5 34.8125 27.75C34.7292 25.4583 34.5625 23.7292 34.3125 22.5625C34.0625 21.3542 33.7917 20.5 33.5 20C33.1667 19.4167 32.8125 19.125 32.4375 19.125C32.0625 19.2917 31.7292 19.5 31.4375 19.75C31.1458 19.9583 30.8958 20.1875 30.6875 20.4375C30.4375 20.7292 30.2083 21.0417 30 21.375C29.9167 21.5 29.8333 21.7917 29.75 22.25C29.6667 22.7083 29.5833 23.3958 29.5 24.3125C29.5 24.6042 29.4792 25.2083 29.4375 26.125C29.4375 27.0417 29.4167 28.1042 29.375 29.3125C29.375 30.5208 29.3542 31.7917 29.3125 33.125C29.3125 34.4583 29.2917 35.7083 29.25 36.875C29.25 38 29.2292 38.9583 29.1875 39.75C29.1875 40.5417 29.1667 41 29.125 41.125C29.0417 41.3333 28.8333 41.625 28.5 42C28.1667 42.375 27.7917 42.7292 27.375 43.0625C26.9583 43.3542 26.5625 43.6042 26.1875 43.8125C25.8125 43.9792 25.5625 43.9583 25.4375 43.75C25.3125 43.625 25.1875 43.0833 25.0625 42.125C24.9375 41.1667 24.7917 40 24.625 38.625C24.5 37.2083 24.3542 35.6667 24.1875 34C24.0208 32.3333 23.875 30.7292 23.75 29.1875C23.625 27.6458 23.5208 26.2708 23.4375 25.0625C23.3542 23.8125 23.2917 22.9167 23.25 22.375C23.2083 21.5833 23.1667 20.7083 23.125 19.75C23.0833 18.7917 23.0417 17.8958 23 17.0625C23 16.1875 23 15.4375 23 14.8125C23.0417 14.1458 23.125 13.75 23.25 13.625C23.3333 13.5 23.6042 13.4792 24.0625 13.5625C24.5625 13.6042 25.0833 13.7292 25.625 13.9375C26.2083 14.1042 26.75 14.3333 27.25 14.625C27.75 14.9167 28.0833 15.1875 28.25 15.4375C28.375 15.6458 28.5 15.9583 28.625 16.375C29.4167 15.9583 30.1667 15.5833 30.875 15.25C31.625 14.875 32.3333 14.6042 33 14.4375C33.7083 14.2708 34.3958 14.2292 35.0625 14.3125C35.7292 14.3542 36.3958 14.5625 37.0625 14.9375ZM58.875 16.125C59.125 16.4167 59.3542 16.7292 59.5625 17.0625C59.7708 17.3542 59.9583 17.7708 60.125 18.3125C60.2917 18.8125 60.4167 19.4792 60.5 20.3125C60.625 21.1458 60.6875 22.2292 60.6875 23.5625C60.6875 25.6875 60.625 27.8333 60.5 30C60.4167 32.125 60.3333 34 60.25 35.625C60.2083 37.0833 60.1667 38.4375 60.125 39.6875C60.0833 40.9375 60.0417 42.0417 60 43C59.9583 43.9167 59.8958 44.6458 59.8125 45.1875C59.7708 45.7292 59.7292 46.0208 59.6875 46.0625C59.5208 46.1875 59.25 46.1458 58.875 45.9375C58.5417 45.6875 58.1667 45.375 57.75 45C57.375 44.625 57.0208 44.2292 56.6875 43.8125C56.3542 43.3958 56.1458 43.0625 56.0625 42.8125C56.0625 42.6042 56 42 55.875 41C54.875 41.5833 53.7708 42 52.5625 42.25C51.3542 42.4583 50.1458 42.5417 48.9375 42.5C47.7708 42.4167 46.6875 42.1875 45.6875 41.8125C44.6875 41.4375 43.9375 40.9375 43.4375 40.3125C43.2292 40.0625 43.0417 39.6875 42.875 39.1875C42.75 38.6875 42.625 38.125 42.5 37.5C42.4167 36.8333 42.3333 36.1458 42.25 35.4375C42.1667 34.6875 42.1042 34 42.0625 33.375C41.9792 31.75 42.1875 30.3542 42.6875 29.1875C43.1875 27.9792 44.1042 27.0833 45.4375 26.5C46.0208 26.25 46.7917 26.125 47.75 26.125C48.75 26.0833 49.7292 26.125 50.6875 26.25C51.6875 26.3333 52.5833 26.4583 53.375 26.625C54.1667 26.75 54.6667 26.8542 54.875 26.9375C54.7083 24.8125 54.5833 22.9792 54.5 21.4375C54.4167 19.8542 54.25 18.8333 54 18.375C53.7917 18.0833 53.5417 17.7917 53.25 17.5C53 17.2917 52.6667 17.0625 52.25 16.8125C51.8333 16.5625 51.3333 16.375 50.75 16.25C50.2917 16.1667 49.875 16.3542 49.5 16.8125C49.1667 17.2292 48.8542 17.9792 48.5625 19.0625C48.3125 20.1042 48.1667 21.7083 48.125 23.875C46.6667 23.9167 45.5417 23.9167 44.75 23.875C44 23.7917 43.4375 23.7083 43.0625 23.625C42.6042 23.5417 42.3333 23.4375 42.25 23.3125C42.1667 23.1458 42.2083 22.5417 42.375 21.5C42.5417 20.4167 42.7708 19.25 43.0625 18C43.3958 16.75 43.7708 15.5625 44.1875 14.4375C44.6458 13.3125 45.125 12.6042 45.625 12.3125C46.625 11.7292 47.8125 11.5208 49.1875 11.6875C50.6042 11.8542 51.9792 12.2083 53.3125 12.75C54.6458 13.2917 55.8333 13.8958 56.875 14.5625C57.9167 15.2292 58.5833 15.75 58.875 16.125ZM55 34.375C55 34.1667 55.0208 33.8958 55.0625 33.5625C55.1042 33.1875 55.125 32.8125 55.125 32.4375C55.125 32.0625 55.1042 31.7083 55.0625 31.375C55.0625 31.0417 55.0208 30.7917 54.9375 30.625C54.8125 30.375 54.4375 30.1667 53.8125 30C53.2292 29.8333 52.5625 29.7292 51.8125 29.6875C51.0625 29.6042 50.3542 29.5833 49.6875 29.625C49.0208 29.625 48.5625 29.7083 48.3125 29.875C47.9792 30.0833 47.7292 30.375 47.5625 30.75C47.4375 31.125 47.3542 31.7083 47.3125 32.5C47.3125 32.875 47.3333 33.2708 47.375 33.6875C47.4167 34.1042 47.4583 34.5208 47.5 34.9375C47.5833 35.3125 47.6667 35.6458 47.75 35.9375C47.875 36.2292 48 36.4167 48.125 36.5C48.4167 36.7083 48.9167 36.8958 49.625 37.0625C50.375 37.1875 51.125 37.2292 51.875 37.1875C52.625 37.1042 53.3125 36.8542 53.9375 36.4375C54.5625 36.0208 54.9167 35.3333 55 34.375ZM78.25 10.8125C78.25 10.9792 78.0208 11.6458 77.5625 12.8125C77.1042 13.9792 76.5208 15.4167 75.8125 17.125C75.1042 18.8333 74.3125 20.7083 73.4375 22.75C72.5625 24.75 71.7292 26.6667 70.9375 28.5C70.1875 30.3333 69.5208 31.9375 68.9375 33.3125C68.3542 34.6875 67.9792 35.6042 67.8125 36.0625C68.7708 35.9375 69.7292 35.8333 70.6875 35.75C71.6458 35.625 72.5 35.5417 73.25 35.5C74.0417 35.4167 74.6875 35.375 75.1875 35.375C75.6875 35.3333 75.9583 35.3333 76 35.375C76.125 35.5417 76.125 35.8958 76 36.4375C75.875 36.9375 75.6875 37.5 75.4375 38.125C75.1875 38.75 74.8958 39.3542 74.5625 39.9375C74.2708 40.5208 74.0208 40.9375 73.8125 41.1875C73.7292 41.3125 73.2708 41.4167 72.4375 41.5C71.6458 41.5833 70.75 41.6458 69.75 41.6875C68.75 41.7292 67.7917 41.75 66.875 41.75C65.9583 41.75 65.375 41.7292 65.125 41.6875C64.6667 41.6042 64.2292 41.1667 63.8125 40.375C63.4375 39.5833 63.2083 38.8333 63.125 38.125C63.0833 37.7917 63.1875 37.125 63.4375 36.125C63.7292 35.125 64.1042 33.9583 64.5625 32.625C65.0208 31.25 65.5417 29.7917 66.125 28.25C66.75 26.6667 67.3333 25.125 67.875 23.625C68.4583 22.125 68.9792 20.75 69.4375 19.5C69.8958 18.2083 70.25 17.1667 70.5 16.375C68.7917 16.5 67.4792 16.6042 66.5625 16.6875C65.6458 16.7708 64.9583 16.8333 64.5 16.875C64.0833 16.9167 63.8125 16.9375 63.6875 16.9375C63.5625 16.8958 63.4792 16.8333 63.4375 16.75C63.2708 16.5 63.1042 16.0417 62.9375 15.375C62.8125 14.7083 62.7083 14 62.625 13.25C62.5833 12.5 62.5625 11.8125 62.5625 11.1875C62.6042 10.5208 62.7083 10.0833 62.875 9.875C62.9583 9.75 63.3958 9.64583 64.1875 9.5625C64.9792 9.47917 65.9375 9.41667 67.0625 9.375C68.2292 9.33333 69.4583 9.33333 70.75 9.375C72.0417 9.375 73.2292 9.4375 74.3125 9.5625C75.4375 9.64583 76.3542 9.79167 77.0625 10C77.8125 10.2083 78.2083 10.4792 78.25 10.8125ZM93.0625 14C93.1875 14.0833 93.2917 14.625 93.375 15.625C93.4583 16.625 93.5208 17.9375 93.5625 19.5625C93.6458 21.1458 93.6875 22.9583 93.6875 25C93.6875 27.0417 93.6875 29.1458 93.6875 31.3125C93.6875 33.4792 93.6667 35.625 93.625 37.75C93.625 39.8333 93.5833 41.75 93.5 43.5C93.4583 45.2083 93.3958 46.6667 93.3125 47.875C93.2708 49.0833 93.2083 49.8542 93.125 50.1875C93.0417 50.4375 92.7917 50.8125 92.375 51.3125C92 51.8542 91.5417 52.3958 91 52.9375C90.4583 53.4792 89.8958 53.9583 89.3125 54.375C88.7708 54.8333 88.3125 55.125 87.9375 55.25C87.1875 55.5 86.3542 55.4583 85.4375 55.125C84.5208 54.7917 83.6458 54.3542 82.8125 53.8125C82.0208 53.2708 81.3125 52.6875 80.6875 52.0625C80.1042 51.4792 79.75 51.0625 79.625 50.8125C79.5 50.5625 79.375 50.1875 79.25 49.6875C79.1667 49.2292 79.1042 48.7708 79.0625 48.3125C79.0208 47.8125 79.0208 47.3958 79.0625 47.0625C79.1458 46.6875 79.2917 46.5 79.5 46.5C79.6667 46.5 80.1042 46.6875 80.8125 47.0625C81.5625 47.4375 82.3542 47.8333 83.1875 48.25C84.0208 48.625 84.7917 48.9375 85.5 49.1875C86.2083 49.4375 86.6458 49.4167 86.8125 49.125C86.9792 48.7917 87.1458 47.8958 87.3125 46.4375C87.4792 44.9375 87.6458 43.125 87.8125 41C86.3542 41.5 85.0208 41.8333 83.8125 42C82.6458 42.125 81.6667 41.9167 80.875 41.375C80.5 41.125 80.1042 40.6875 79.6875 40.0625C79.3125 39.4375 78.9583 38.7292 78.625 37.9375C78.3333 37.1042 78.0833 36.2292 77.875 35.3125C77.6667 34.3542 77.5625 33.4583 77.5625 32.625C77.5625 32.0417 77.625 31.2083 77.75 30.125C77.9167 29.0417 78.125 27.8542 78.375 26.5625C78.625 25.2708 78.875 23.9375 79.125 22.5625C79.4167 21.1875 79.6875 19.9375 79.9375 18.8125C80.2292 17.6875 80.4583 16.75 80.625 16C80.8333 15.2083 80.9583 14.7708 81 14.6875C81.0833 14.5625 81.2917 14.5 81.625 14.5C81.9583 14.4583 82.3125 14.4792 82.6875 14.5625C83.0625 14.6042 83.4167 14.7083 83.75 14.875C84.0833 15.0417 84.2917 15.2292 84.375 15.4375C84.4167 15.6042 84.4167 16.125 84.375 17C84.375 17.875 84.3125 18.9167 84.1875 20.125C84.1042 21.3333 84 22.6458 83.875 24.0625C83.7917 25.4375 83.6875 26.75 83.5625 28C83.4792 29.2083 83.3958 30.25 83.3125 31.125C83.2292 32 83.1875 32.5208 83.1875 32.6875C83.1875 33.3542 83.25 34 83.375 34.625C83.5417 35.2083 83.7292 35.7292 83.9375 36.1875C84.1875 36.6042 84.4375 36.9375 84.6875 37.1875C84.9375 37.4375 85.1667 37.5208 85.375 37.4375C86.0833 37.3125 86.7292 37.1458 87.3125 36.9375C87.6042 36.8125 87.875 36.6875 88.125 36.5625C88.25 34.5208 88.375 32.4375 88.5 30.3125C88.625 28.1458 88.7292 26.1667 88.8125 24.375C88.8958 22.5833 88.9583 21.0625 89 19.8125C89.0833 18.5625 89.125 17.7708 89.125 17.4375C89.125 17.0625 89.2917 16.6458 89.625 16.1875C89.9583 15.6875 90.3333 15.25 90.75 14.875C91.1667 14.5 91.5833 14.2292 92 14.0625C92.4583 13.8542 92.8125 13.8333 93.0625 14ZM116.812 29.5C116.812 30.0417 116.792 30.8958 116.75 32.0625C116.75 33.2292 116.729 34.5417 116.688 36C116.646 37.4583 116.583 38.9792 116.5 40.5625C116.458 42.1042 116.375 43.5208 116.25 44.8125C116.125 46.0625 115.979 47.1042 115.812 47.9375C115.688 48.7708 115.521 49.1875 115.312 49.1875C114.688 49.1875 114.083 48.75 113.5 47.875C112.958 46.9583 112.396 45.9792 111.812 44.9375C111.688 44.6875 111.542 43.9583 111.375 42.75C111.25 41.5 111.104 39.9375 110.938 38.0625C110.812 36.1875 110.688 34.1042 110.562 31.8125C110.438 29.5208 110.312 27.1875 110.188 24.8125C110.062 22.4375 109.958 20.1042 109.875 17.8125C109.833 15.5208 109.792 13.4583 109.75 11.625C109.708 9.79167 109.708 8.27083 109.75 7.0625C109.792 5.8125 109.875 5.08333 110 4.875C110.167 4.58333 110.75 4.375 111.75 4.25C112.75 4.08333 113.958 4 115.375 4C116.833 4 118.396 4.04167 120.062 4.125C121.729 4.20833 123.271 4.33333 124.688 4.5C126.146 4.625 127.354 4.77083 128.312 4.9375C129.312 5.10417 129.875 5.25 130 5.375C130.167 5.54167 130.188 6 130.062 6.75C129.979 7.45833 129.812 8.25 129.562 9.125C129.354 9.95833 129.083 10.75 128.75 11.5C128.458 12.25 128.208 12.7292 128 12.9375C127.792 13.1458 126.812 13.125 125.062 12.875C123.354 12.625 120.604 12.3333 116.812 12V22.4375C119.729 22.6875 122 22.9167 123.625 23.125C125.292 23.3333 126.167 23.4792 126.25 23.5625C126.417 23.7292 126.479 24.0625 126.438 24.5625C126.396 25.0625 126.292 25.6042 126.125 26.1875C125.958 26.7292 125.75 27.25 125.5 27.75C125.25 28.2083 125 28.5208 124.75 28.6875C124.625 28.7708 123.875 28.8958 122.5 29.0625C121.167 29.2292 119.271 29.375 116.812 29.5ZM143.875 15.5625C143.958 15.6875 144.083 16.2708 144.25 17.3125C144.417 18.3542 144.583 19.6458 144.75 21.1875C144.958 22.7292 145.146 24.3958 145.312 26.1875C145.521 27.9792 145.708 29.6875 145.875 31.3125C146.083 32.9375 146.25 34.3958 146.375 35.6875C146.5 36.9792 146.604 37.8542 146.688 38.3125C146.812 39.0625 146.958 39.8958 147.125 40.8125C147.292 41.6875 147.438 42.5417 147.562 43.375C147.688 44.1667 147.771 44.8542 147.812 45.4375C147.896 46.0208 147.875 46.375 147.75 46.5C147.667 46.625 147.333 46.6667 146.75 46.625C146.167 46.5417 145.521 46.4167 144.812 46.25C144.146 46.0417 143.5 45.8125 142.875 45.5625C142.292 45.2708 141.917 45 141.75 44.75C141.583 44.5417 141.417 44.2292 141.25 43.8125C141.125 43.3958 140.958 42.6667 140.75 41.625C140.292 42.25 139.792 42.9167 139.25 43.625C138.75 44.2917 138.25 44.9167 137.75 45.5C137.25 46.0417 136.792 46.4792 136.375 46.8125C135.958 47.1458 135.646 47.3125 135.438 47.3125C135.104 47.3125 134.604 46.9792 133.938 46.3125C133.271 45.6042 132.604 44.8125 131.938 43.9375C131.271 43.0625 130.667 42.2292 130.125 41.4375C129.583 40.6458 129.292 40.125 129.25 39.875C129.167 39.625 129.125 38.9375 129.125 37.8125C129.167 36.6875 129.208 35.4375 129.25 34.0625C129.333 32.6458 129.417 31.25 129.5 29.875C129.583 28.4583 129.667 27.3333 129.75 26.5C129.833 25.6667 129.917 24.75 130 23.75C130.125 22.7083 130.25 21.75 130.375 20.875C130.5 19.9583 130.604 19.1667 130.688 18.5C130.812 17.8333 130.917 17.4375 131 17.3125C131.083 17.1875 131.312 17.125 131.688 17.125C132.104 17.0833 132.521 17.1042 132.938 17.1875C133.396 17.2292 133.812 17.3333 134.188 17.5C134.562 17.625 134.812 17.7917 134.938 18C135.021 18.1667 135.062 18.7083 135.062 19.625C135.104 20.5 135.125 21.5833 135.125 22.875C135.125 24.125 135.125 25.5 135.125 27C135.125 28.4583 135.104 29.8333 135.062 31.125C135.062 32.375 135.042 33.4583 135 34.375C135 35.25 135 35.7708 135 35.9375C135 36.2708 135.188 36.9167 135.562 37.875C135.979 38.8333 136.396 39.75 136.812 40.625L140.062 36.75C140.021 36 139.979 35.0417 139.938 33.875C139.938 32.7083 139.917 31.4792 139.875 30.1875C139.833 28.8958 139.792 27.5833 139.75 26.25C139.708 24.9167 139.688 23.7083 139.688 22.625C139.688 21.5417 139.688 20.6458 139.688 19.9375C139.688 19.2292 139.708 18.8125 139.75 18.6875C139.875 18.4375 140.125 18.1042 140.5 17.6875C140.875 17.2708 141.292 16.875 141.75 16.5C142.208 16.125 142.625 15.8333 143 15.625C143.417 15.4167 143.708 15.3958 143.875 15.5625ZM163.875 14.9375C164.208 15.1458 164.521 15.5625 164.812 16.1875C165.146 16.7708 165.438 17.4583 165.688 18.25C165.979 19 166.208 19.8125 166.375 20.6875C166.583 21.5625 166.75 22.375 166.875 23.125C167.042 23.875 167.146 24.5208 167.188 25.0625C167.229 25.5625 167.229 25.875 167.188 26C167.104 26.1667 166.854 26.3333 166.438 26.5C166.062 26.6667 165.5 26.8542 164.75 27.0625C164 27.2708 162.958 27.5 161.625 27.75C161.542 25.4583 161.375 23.7292 161.125 22.5625C160.875 21.3542 160.604 20.5 160.312 20C159.979 19.4167 159.625 19.125 159.25 19.125C158.875 19.2917 158.542 19.5 158.25 19.75C157.958 19.9583 157.708 20.1875 157.5 20.4375C157.25 20.7292 157.021 21.0417 156.812 21.375C156.729 21.5 156.646 21.7917 156.562 22.25C156.479 22.7083 156.396 23.3958 156.312 24.3125C156.312 24.6042 156.292 25.2083 156.25 26.125C156.25 27.0417 156.229 28.1042 156.188 29.3125C156.188 30.5208 156.167 31.7917 156.125 33.125C156.125 34.4583 156.104 35.7083 156.062 36.875C156.062 38 156.042 38.9583 156 39.75C156 40.5417 155.979 41 155.938 41.125C155.854 41.3333 155.646 41.625 155.312 42C154.979 42.375 154.604 42.7292 154.188 43.0625C153.771 43.3542 153.375 43.6042 153 43.8125C152.625 43.9792 152.375 43.9583 152.25 43.75C152.125 43.625 152 43.0833 151.875 42.125C151.75 41.1667 151.604 40 151.438 38.625C151.312 37.2083 151.167 35.6667 151 34C150.833 32.3333 150.688 30.7292 150.562 29.1875C150.438 27.6458 150.333 26.2708 150.25 25.0625C150.167 23.8125 150.104 22.9167 150.062 22.375C150.021 21.5833 149.979 20.7083 149.938 19.75C149.896 18.7917 149.854 17.8958 149.812 17.0625C149.812 16.1875 149.812 15.4375 149.812 14.8125C149.854 14.1458 149.938 13.75 150.062 13.625C150.146 13.5 150.417 13.4792 150.875 13.5625C151.375 13.6042 151.896 13.7292 152.438 13.9375C153.021 14.1042 153.562 14.3333 154.062 14.625C154.562 14.9167 154.896 15.1875 155.062 15.4375C155.188 15.6458 155.312 15.9583 155.438 16.375C156.229 15.9583 156.979 15.5833 157.688 15.25C158.438 14.875 159.146 14.6042 159.812 14.4375C160.521 14.2708 161.208 14.2292 161.875 14.3125C162.542 14.3542 163.208 14.5625 163.875 14.9375ZM183.688 14C183.812 14.0833 183.917 14.625 184 15.625C184.083 16.625 184.146 17.9375 184.188 19.5625C184.271 21.1458 184.312 22.9583 184.312 25C184.312 27.0417 184.312 29.1458 184.312 31.3125C184.312 33.4792 184.292 35.625 184.25 37.75C184.25 39.8333 184.208 41.75 184.125 43.5C184.083 45.2083 184.021 46.6667 183.938 47.875C183.896 49.0833 183.833 49.8542 183.75 50.1875C183.667 50.4375 183.417 50.8125 183 51.3125C182.625 51.8542 182.167 52.3958 181.625 52.9375C181.083 53.4792 180.521 53.9583 179.938 54.375C179.396 54.8333 178.938 55.125 178.562 55.25C177.812 55.5 176.979 55.4583 176.062 55.125C175.146 54.7917 174.271 54.3542 173.438 53.8125C172.646 53.2708 171.938 52.6875 171.312 52.0625C170.729 51.4792 170.375 51.0625 170.25 50.8125C170.125 50.5625 170 50.1875 169.875 49.6875C169.792 49.2292 169.729 48.7708 169.688 48.3125C169.646 47.8125 169.646 47.3958 169.688 47.0625C169.771 46.6875 169.917 46.5 170.125 46.5C170.292 46.5 170.729 46.6875 171.438 47.0625C172.188 47.4375 172.979 47.8333 173.812 48.25C174.646 48.625 175.417 48.9375 176.125 49.1875C176.833 49.4375 177.271 49.4167 177.438 49.125C177.604 48.7917 177.771 47.8958 177.938 46.4375C178.104 44.9375 178.271 43.125 178.438 41C176.979 41.5 175.646 41.8333 174.438 42C173.271 42.125 172.292 41.9167 171.5 41.375C171.125 41.125 170.729 40.6875 170.312 40.0625C169.938 39.4375 169.583 38.7292 169.25 37.9375C168.958 37.1042 168.708 36.2292 168.5 35.3125C168.292 34.3542 168.188 33.4583 168.188 32.625C168.188 32.0417 168.25 31.2083 168.375 30.125C168.542 29.0417 168.75 27.8542 169 26.5625C169.25 25.2708 169.5 23.9375 169.75 22.5625C170.042 21.1875 170.312 19.9375 170.562 18.8125C170.854 17.6875 171.083 16.75 171.25 16C171.458 15.2083 171.583 14.7708 171.625 14.6875C171.708 14.5625 171.917 14.5 172.25 14.5C172.583 14.4583 172.938 14.4792 173.312 14.5625C173.688 14.6042 174.042 14.7083 174.375 14.875C174.708 15.0417 174.917 15.2292 175 15.4375C175.042 15.6042 175.042 16.125 175 17C175 17.875 174.938 18.9167 174.812 20.125C174.729 21.3333 174.625 22.6458 174.5 24.0625C174.417 25.4375 174.312 26.75 174.188 28C174.104 29.2083 174.021 30.25 173.938 31.125C173.854 32 173.812 32.5208 173.812 32.6875C173.812 33.3542 173.875 34 174 34.625C174.167 35.2083 174.354 35.7292 174.562 36.1875C174.812 36.6042 175.062 36.9375 175.312 37.1875C175.562 37.4375 175.792 37.5208 176 37.4375C176.708 37.3125 177.354 37.1458 177.938 36.9375C178.229 36.8125 178.5 36.6875 178.75 36.5625C178.875 34.5208 179 32.4375 179.125 30.3125C179.25 28.1458 179.354 26.1667 179.438 24.375C179.521 22.5833 179.583 21.0625 179.625 19.8125C179.708 18.5625 179.75 17.7708 179.75 17.4375C179.75 17.0625 179.917 16.6458 180.25 16.1875C180.583 15.6875 180.958 15.25 181.375 14.875C181.792 14.5 182.208 14.2292 182.625 14.0625C183.083 13.8542 183.438 13.8333 183.688 14ZM226.125 12C226.917 12.6667 227.5 14 227.875 16C228.25 17.9583 228.396 20.1458 228.312 22.5625C228.271 23.3125 228.167 24.3542 228 25.6875C227.833 26.9792 227.625 28.4167 227.375 30C227.167 31.5417 226.917 33.125 226.625 34.75C226.375 36.375 226.125 37.875 225.875 39.25C225.625 40.625 225.396 41.7917 225.188 42.75C225.021 43.6667 224.917 44.2083 224.875 44.375C224.792 44.6667 224.562 44.9583 224.188 45.25C223.812 45.5417 223.417 45.7917 223 46C222.625 46.1667 222.25 46.2917 221.875 46.375C221.5 46.4167 221.271 46.3333 221.188 46.125C221.146 46 221.146 45.3542 221.188 44.1875C221.229 43.0208 221.292 41.5833 221.375 39.875C221.458 38.125 221.542 36.2708 221.625 34.3125C221.75 32.3125 221.854 30.4375 221.938 28.6875C222.021 26.9375 222.104 25.4583 222.188 24.25C222.271 23 222.312 22.25 222.312 22C222.354 20.7083 222.25 19.5833 222 18.625C221.75 17.625 221.333 17.125 220.75 17.125C220.542 17.125 220.292 17.2292 220 17.4375C219.708 17.6042 219.417 17.8125 219.125 18.0625C218.875 18.3125 218.625 18.5833 218.375 18.875C218.167 19.1667 218.062 19.4375 218.062 19.6875C218.021 20.4375 217.958 21.5417 217.875 23C217.833 24.4583 217.771 26.0625 217.688 27.8125C217.646 29.5625 217.583 31.3542 217.5 33.1875C217.458 35.0208 217.396 36.7083 217.312 38.25C217.271 39.7917 217.229 41.0833 217.188 42.125C217.146 43.125 217.104 43.6875 217.062 43.8125C216.979 43.9792 216.708 44.1042 216.25 44.1875C215.833 44.2292 215.354 44.2292 214.812 44.1875C214.271 44.1458 213.771 44.0417 213.312 43.875C212.896 43.7083 212.646 43.4792 212.562 43.1875C212.479 42.9792 212.417 42.3542 212.375 41.3125C212.333 40.2292 212.271 38.9375 212.188 37.4375C212.146 35.9375 212.104 34.3333 212.062 32.625C212.021 30.875 211.979 29.25 211.938 27.75C211.896 26.25 211.854 24.9583 211.812 23.875C211.812 22.7917 211.812 22.125 211.812 21.875C211.812 20.875 211.729 20.0833 211.562 19.5C211.396 18.875 211.188 18.3958 210.938 18.0625C210.729 17.6875 210.479 17.4583 210.188 17.375C209.896 17.25 209.604 17.1875 209.312 17.1875C209.188 17.1875 209 17.2917 208.75 17.5C208.5 17.6667 208.25 17.9375 208 18.3125C207.75 18.6458 207.542 19.0417 207.375 19.5C207.208 19.9167 207.146 20.375 207.188 20.875C207.188 21.0833 207.208 21.8542 207.25 23.1875C207.292 24.5208 207.312 26.125 207.312 28C207.354 29.875 207.396 31.8958 207.438 34.0625C207.479 36.2292 207.5 38.25 207.5 40.125C207.542 41.9583 207.562 43.5208 207.562 44.8125C207.562 46.0625 207.562 46.7292 207.562 46.8125C207.479 47.0208 207.25 47.1458 206.875 47.1875C206.5 47.1875 206.083 47.1042 205.625 46.9375C205.167 46.7708 204.729 46.5417 204.312 46.25C203.896 45.9167 203.604 45.5208 203.438 45.0625C203.354 44.7292 203.229 44 203.062 42.875C202.896 41.75 202.708 40.4167 202.5 38.875C202.292 37.2917 202.083 35.6042 201.875 33.8125C201.667 31.9792 201.458 30.2292 201.25 28.5625C201.042 26.8542 200.854 25.3125 200.688 23.9375C200.562 22.5625 200.458 21.5208 200.375 20.8125C200.25 19.8125 200.104 18.7292 199.938 17.5625C199.812 16.3542 199.688 15.2083 199.562 14.125C199.479 13 199.417 12.0417 199.375 11.25C199.333 10.4167 199.375 9.89583 199.5 9.6875C199.583 9.52083 199.875 9.45833 200.375 9.5C200.917 9.54167 201.479 9.66667 202.062 9.875C202.688 10.0417 203.271 10.2917 203.812 10.625C204.396 10.9167 204.771 11.2292 204.938 11.5625C205.062 11.8125 205.188 12.125 205.312 12.5C205.479 12.8333 205.646 13.375 205.812 14.125C206.521 13.5833 207.25 13.0833 208 12.625C208.75 12.125 209.5 11.75 210.25 11.5C211 11.2083 211.708 11.0625 212.375 11.0625C213.083 11.0208 213.75 11.2083 214.375 11.625C214.917 12.0417 215.438 12.7708 215.938 13.8125C217.938 12.6875 219.854 11.9167 221.688 11.5C223.562 11.0417 225.042 11.2083 226.125 12ZM248.062 16.125C248.312 16.4167 248.542 16.7292 248.75 17.0625C248.958 17.3542 249.146 17.7708 249.312 18.3125C249.479 18.8125 249.604 19.4792 249.688 20.3125C249.812 21.1458 249.875 22.2292 249.875 23.5625C249.875 25.6875 249.812 27.8333 249.688 30C249.604 32.125 249.521 34 249.438 35.625C249.396 37.0833 249.354 38.4375 249.312 39.6875C249.271 40.9375 249.229 42.0417 249.188 43C249.146 43.9167 249.083 44.6458 249 45.1875C248.958 45.7292 248.917 46.0208 248.875 46.0625C248.708 46.1875 248.438 46.1458 248.062 45.9375C247.729 45.6875 247.354 45.375 246.938 45C246.562 44.625 246.208 44.2292 245.875 43.8125C245.542 43.3958 245.333 43.0625 245.25 42.8125C245.25 42.6042 245.188 42 245.062 41C244.062 41.5833 242.958 42 241.75 42.25C240.542 42.4583 239.333 42.5417 238.125 42.5C236.958 42.4167 235.875 42.1875 234.875 41.8125C233.875 41.4375 233.125 40.9375 232.625 40.3125C232.417 40.0625 232.229 39.6875 232.062 39.1875C231.938 38.6875 231.812 38.125 231.688 37.5C231.604 36.8333 231.521 36.1458 231.438 35.4375C231.354 34.6875 231.292 34 231.25 33.375C231.167 31.75 231.375 30.3542 231.875 29.1875C232.375 27.9792 233.292 27.0833 234.625 26.5C235.208 26.25 235.979 26.125 236.938 26.125C237.938 26.0833 238.917 26.125 239.875 26.25C240.875 26.3333 241.771 26.4583 242.562 26.625C243.354 26.75 243.854 26.8542 244.062 26.9375C243.896 24.8125 243.771 22.9792 243.688 21.4375C243.604 19.8542 243.438 18.8333 243.188 18.375C242.979 18.0833 242.729 17.7917 242.438 17.5C242.188 17.2917 241.854 17.0625 241.438 16.8125C241.021 16.5625 240.521 16.375 239.938 16.25C239.479 16.1667 239.062 16.3542 238.688 16.8125C238.354 17.2292 238.042 17.9792 237.75 19.0625C237.5 20.1042 237.354 21.7083 237.312 23.875C235.854 23.9167 234.729 23.9167 233.938 23.875C233.188 23.7917 232.625 23.7083 232.25 23.625C231.792 23.5417 231.521 23.4375 231.438 23.3125C231.354 23.1458 231.396 22.5417 231.562 21.5C231.729 20.4167 231.958 19.25 232.25 18C232.583 16.75 232.958 15.5625 233.375 14.4375C233.833 13.3125 234.312 12.6042 234.812 12.3125C235.812 11.7292 237 11.5208 238.375 11.6875C239.792 11.8542 241.167 12.2083 242.5 12.75C243.833 13.2917 245.021 13.8958 246.062 14.5625C247.104 15.2292 247.771 15.75 248.062 16.125ZM244.188 34.375C244.188 34.1667 244.208 33.8958 244.25 33.5625C244.292 33.1875 244.312 32.8125 244.312 32.4375C244.312 32.0625 244.292 31.7083 244.25 31.375C244.25 31.0417 244.208 30.7917 244.125 30.625C244 30.375 243.625 30.1667 243 30C242.417 29.8333 241.75 29.7292 241 29.6875C240.25 29.6042 239.542 29.5833 238.875 29.625C238.208 29.625 237.75 29.7083 237.5 29.875C237.167 30.0833 236.917 30.375 236.75 30.75C236.625 31.125 236.542 31.7083 236.5 32.5C236.5 32.875 236.521 33.2708 236.562 33.6875C236.604 34.1042 236.646 34.5208 236.688 34.9375C236.771 35.3125 236.854 35.6458 236.938 35.9375C237.062 36.2292 237.188 36.4167 237.312 36.5C237.604 36.7083 238.104 36.8958 238.812 37.0625C239.562 37.1875 240.312 37.2292 241.062 37.1875C241.812 37.1042 242.5 36.8542 243.125 36.4375C243.75 36.0208 244.104 35.3333 244.188 34.375ZM268.812 10.8125C269.229 11.0625 269.625 11.5208 270 12.1875C270.417 12.8125 270.792 13.5625 271.125 14.4375C271.458 15.2708 271.729 16.1875 271.938 17.1875C272.146 18.1458 272.25 19.0625 272.25 19.9375C272.25 20.8542 272.083 22.125 271.75 23.75C271.458 25.3333 271.104 26.9375 270.688 28.5625C270.271 30.1875 269.875 31.6458 269.5 32.9375C269.125 34.2292 268.875 35 268.75 35.25C268.5 36.2083 268.167 36.8958 267.75 37.3125C267.333 37.6458 266.771 37.8958 266.062 38.0625C265.396 38.1875 264.708 38.2708 264 38.3125C263.292 38.3542 262.604 38.3542 261.938 38.3125C261.271 38.2292 260.75 38.125 260.375 38C260.333 38 260.188 37.9583 259.938 37.875C259.938 39.5417 259.917 41.25 259.875 43C259.833 44.5 259.792 46.1875 259.75 48.0625C259.708 49.8958 259.667 51.75 259.625 53.625C259.542 54 259.375 54.4375 259.125 54.9375C258.917 55.4375 258.646 55.8958 258.312 56.3125C257.979 56.7708 257.625 57.1458 257.25 57.4375C256.917 57.7292 256.604 57.8333 256.312 57.75C256.146 57.7083 255.958 56.9792 255.75 55.5625C255.583 54.1875 255.396 52.3542 255.188 50.0625C255.021 47.8125 254.833 45.2292 254.625 42.3125C254.417 39.3958 254.229 36.4167 254.062 33.375C253.896 30.3333 253.75 27.3542 253.625 24.4375C253.542 21.4792 253.458 18.8542 253.375 16.5625C253.333 14.2292 253.333 12.3333 253.375 10.875C253.417 9.375 253.521 8.5625 253.688 8.4375C253.812 8.3125 254.062 8.33333 254.438 8.5C254.812 8.625 255.229 8.875 255.688 9.25C256.188 9.58333 256.688 10.0208 257.188 10.5625C257.729 11.0625 258.208 11.625 258.625 12.25C260.667 11.3333 262.604 10.6875 264.438 10.3125C266.271 9.9375 267.729 10.1042 268.812 10.8125ZM266.188 20C266.188 19.3333 266.083 18.6875 265.875 18.0625C265.708 17.3958 265.479 16.8333 265.188 16.375C264.896 15.875 264.583 15.5 264.25 15.25C263.958 14.9583 263.688 14.8542 263.438 14.9375C262.396 15.1875 261.521 15.4792 260.812 15.8125C260.438 15.9792 260.125 16.1667 259.875 16.375C259.958 17.7083 260 19.5417 260 21.875C260.042 24.1667 260.062 26.6875 260.062 29.4375C260.062 30.6458 260.104 31.4583 260.188 31.875C260.229 32.875 260.479 33.5625 260.938 33.9375C261.062 34.0625 261.25 34.2083 261.5 34.375C261.75 34.5 262.021 34.625 262.312 34.75C262.604 34.8333 262.896 34.8958 263.188 34.9375C263.479 34.9375 263.729 34.8542 263.938 34.6875C263.979 34.6458 264.062 34.2708 264.188 33.5625C264.354 32.8125 264.521 31.9167 264.688 30.875C264.854 29.7917 265.021 28.6458 265.188 27.4375C265.396 26.1875 265.562 25.0417 265.688 24C265.854 22.9167 265.979 22 266.062 21.25C266.146 20.5 266.188 20.0833 266.188 20Z" fill="black"/>
</svg>
