<svg xmlns="http://www.w3.org/2000/svg" width="24" height="24">
    <path fill="green"
        d="M12.031 1030.4c-3.866 0-7 3.1-7 7 0 1.3.402 2.6 1.094 3.7.033.1.059.1.094.2l4.343 8c.204.6.782 1.1 1.438 1.1s1.202-.5 1.406-1.1l4.844-8.7c.499-1 .781-2.1.781-3.2 0-3.9-3.134-7-7-7zm-.031 3.9c1.933 0 3.5 1.6 3.5 3.5 0 2-1.567 3.5-3.5 3.5s-3.5-1.5-3.5-3.5c0-1.9 1.567-3.5 3.5-3.5z"
        transform="translate(0 -1028.4)"></path>
    <path fill="green"
        d="M12.031 1029.431a7 7 0 00-7 7c0 1.383.402 2.665 1.094 3.75.033.053.059.105.094.157l4.343 8.062c.204.586.782 1.031 1.438 1.031s1.202-.445 1.406-1.031l4.844-8.75c.499-.963.781-2.06.781-3.219a7 7 0 00-7-7zM12 1033.4a3.5 3.5 0 110 7 3.5 3.5 0 010-7z"
        transform="translate(0 -1028.4)"></path>
</svg>